[img]http://img717.imageshack.us/img717/4744/3d300v1.jpg[/img]
[img]http://img543.imageshack.us/img543/6480/i1wh1p19u5qq7.png[/img]
[img]http://img198.imageshack.us/img198/6276/djsound.jpg[/img]
[img]http://imageshack.us/a/img267/6954/7876579134527125182053.jpg[/img]
[font=Roman][b][size=7][color=Black]Jugaad_Kismet Love Paisa Dilli ( KLPD)_{NiLiV}{TmrG}[/color][/size][/b][/font]

[img]http://img140.imageshack.us/img140/4230/2ded61de9b.gif[/img]
[font=Bradley Hand ITC][b][size=7][color=Orange]  Jugaad_Kismet Love Paisa Dilli ( KLPD)_{NiLiV}{TmrG}.MP4 
Format : MPEG-4 
Format profile : Base Media / Version 2 
Codec ID : mp42 
File size : 61.6 MiB 
Duration : 2mn 41s 
Overall bit rate mode : Variable 
Overall bit rate : 3 189 Kbps 
Encoded date : UTC 2012-09-14 09:42:43 
Tagged date : UTC 2012-09-14 09:42:43 

Video 
ID : 1 
Format : AVC 
Format/Info : Advanced Video Codec 
Format profile : High@L3.1 
Format settings, CABAC : Yes 
Format settings, ReFrames : 1 frame 
Codec ID : avc1 
Codec ID/Info : Advanced Video Coding 
Duration : 2mn 41s 
Bit rate : 2 995 Kbps 
Maximum bit rate : 4 687 Kbps 
Width : 1 280 pixels 
Height : 720 pixels 
Display aspect ratio : 16:9 
Frame rate mode : Constant 
Frame rate : 25.000 fps 
Color space : YUV 
Chroma subsampling : 4:2:0 
Bit depth : 8 bits 
Scan type : Progressive 
Bits/(Pixel*Frame) : 0.130 
Stream size : 57.8 MiB (94%) 
Tagged date : UTC 2012-09-14 09:42:43 

Audio 
ID : 2 
Format : AAC 
Format/Info : Advanced Audio Codec 
Format profile : LC 
Codec ID : 40 
Duration : 2mn 41s 
Bit rate mode : Variable 
Bit rate : 192 Kbps 
Maximum bit rate : 203 Kbps 
Channel(s) : 2 channels 
Channel positions : Front: L R 
Sampling rate : 44.1 KHz 
Compression mode : Lossy 
Stream size : 3.71 MiB (6%) 

Encoded date : UTC 2012-09-14 09:42:43 
Tagged date : UTC 2012-09-14 09:42:43 [/color][/size][/b][/font]


[img]http://img593.imageshack.us/img593/2849/23267035.png[/img]
[img]http://imageshack.us/a/img827/8036/jugaadkismetlovepaisadi.jpg[/img]



[b][color=red]:-TO JOIN ΓÇÿTORRENT MAFIA RELEASE GROUPΓÇÖ & TO CHECK ITS UPLOADS, CLICK BELOW:-[/color][/b]

[img]http://img267.imageshack.us/img267/4200/addmefacebook.jpg[/img]

[img]http://img528.imageshack.us/img528/122/commentsrappreciated.gif[/img]
[img]http://img16.imageshack.us/img16/4171/ifacuhm.gif[/img]
[img]http://img651.imageshack.us/img651/8647/jfkpd3jpg.gif[/img]
[img]http://img855.imageshack.us/img855/9109/seedthetorrent.jpg[/img]
[img]http://img440.imageshack.us/img440/8343/vh6wpgth.gif[/img]
[img]http://img827.imageshack.us/img827/9416/zj7xh0.gif[/img]
[img]http://img513.imageshack.us/img513/2484/thankyoupl.jpg[/img]
